<svg width="181" height="166" viewBox="0 0 181 166" fill="none" xmlns="http://www.w3.org/2000/svg">
<path d="M116.809 53.3236V14.2213H178.114V53.3236H116.809Z" fill="#FF9201"/>
<path d="M178.114 53.3235L152.509 33.4936C149.38 31.3422 145.238 31.3309 142.096 33.4629C133.298 39.4356 116.809 53.3235 116.809 53.3235H178.114Z" fill="#BCDCFF"/>
<path d="M143.1 32.8884H142.921L116.808 14.2274L116.809 53.3234C116.809 53.3234 133.298 39.4355 142.095 33.4628C142.419 33.2437 142.758 33.0621 143.1 32.8884Z" fill="#A7D0FE"/>
<path d="M152.003 32.8885H151.466C151.821 33.0702 152.173 33.2632 152.508 33.4936L178.114 53.3236V14.2275L152.003 32.8885Z" fill="#A7D0FE"/>
<path d="M178.114 14.2275L152.509 34.0574C149.38 36.2088 145.237 36.2201 142.096 34.0881C133.297 28.1154 116.809 14.2275 116.809 14.2275H178.114Z" fill="white"/>
<g clip-path="url(#clip0_322_22)">
<path d="M153.493 65.3946L106.59 19.5435C100.734 13.8174 91.3044 13.8174 85.4485 19.5435L38.5459 65.3946V138.712H153.493V65.3946Z" fill="#FF9201"/>
<rect x="54.8652" y="31.7115" width="82.3077" height="107" rx="4.11538" fill="white"/>
<g clip-path="url(#clip1_322_22)">
<path fill-rule="evenodd" clip-rule="evenodd" d="M75.4423 68.2355C79.704 68.2355 83.1587 64.7808 83.1587 60.5192C83.1587 56.2576 79.704 52.8028 75.4423 52.8028C71.1807 52.8028 67.726 56.2576 67.726 60.5192C67.726 64.7808 71.1807 68.2355 75.4423 68.2355ZM75.4423 72.8653C82.2609 72.8653 87.7885 67.3378 87.7885 60.5192C87.7885 53.7006 82.2609 48.173 75.4423 48.173C68.6238 48.173 63.0962 53.7006 63.0962 60.5192C63.0962 67.3378 68.6238 72.8653 75.4423 72.8653Z" fill="#2EC5CE"/>
<rect x="91.9043" y="53.3173" width="37.0385" height="6.17308" rx="0.514423" fill="#2EC5CE"/>
<rect opacity="0.4" x="91.9043" y="62.5769" width="16.4615" height="5.14423" rx="0.514423" fill="#2EC5CE"/>
</g>
<path d="M153.492 138.711L105.483 101.53C99.6163 97.4965 91.8489 97.4753 85.9589 101.473C69.4619 112.672 38.5454 138.711 38.5454 138.711H153.492Z" fill="#FFDC81"/>
<path d="M87.8406 100.396H87.5043L38.5454 66.3375V138.712C38.5454 138.712 69.4619 112.672 85.9568 101.473C86.5634 101.062 87.1999 100.722 87.8406 100.396Z" fill="#FFCA00"/>
<path d="M104.534 100.396H103.527C104.193 100.736 104.853 101.098 105.481 101.53L153.493 138.712V66.3375L104.534 100.396Z" fill="#FFB800"/>
</g>
<path d="M2.60645 152.093V112.99H63.9115V152.093H2.60645Z" fill="#FF9201"/>
<path d="M63.912 152.093L38.3069 132.263C35.1781 130.111 31.0354 130.1 27.8941 132.232C19.0957 138.205 2.60693 152.093 2.60693 152.093H63.912Z" fill="#BCDCFF"/>
<path d="M28.8977 131.658H28.7184L2.60596 112.997L2.60696 152.093C2.60696 152.093 19.0957 138.205 27.893 132.232C28.2166 132.013 28.556 131.831 28.8977 131.658Z" fill="#A7D0FE"/>
<path d="M37.8007 131.658H37.2637C37.619 131.839 37.9709 132.032 38.3059 132.263L63.9121 152.093V112.997L37.8007 131.658Z" fill="#A7D0FE"/>
<path d="M63.9115 112.997L38.3064 132.827C35.1776 134.978 31.035 134.989 27.8936 132.857C19.0952 126.885 2.60645 112.997 2.60645 112.997H63.9115Z" fill="white"/>
<circle cx="149.519" cy="126.365" r="24.6923" fill="white"/>
<g opacity="0.4">
<path d="M155.692 118.861C155.692 122.509 152.731 125.466 149.078 125.466C145.425 125.466 142.464 122.509 142.464 118.861C142.464 115.213 145.425 112.256 149.078 112.256C152.731 112.256 155.692 115.213 155.692 118.861Z" fill="#2EC5CE"/>
<path d="M161.865 140.439C161.865 140.439 153.545 140.521 148.196 140.439C143.878 140.372 137.173 140.439 137.173 140.439C137.173 140.439 138.937 127.228 149.519 127.228C160.101 127.228 161.865 140.439 161.865 140.439Z" fill="#2EC5CE"/>
</g>
<circle cx="168.038" cy="107.846" r="10.2885" fill="#2EC5CE"/>
<path fill-rule="evenodd" clip-rule="evenodd" d="M168.039 103.045C168.37 103.045 168.639 103.314 168.639 103.645V107.246H172.24C172.571 107.246 172.84 107.515 172.84 107.846C172.84 108.178 172.571 108.446 172.24 108.446H168.639V112.047C168.639 112.379 168.37 112.647 168.039 112.647C167.707 112.647 167.438 112.379 167.438 112.047V108.446H163.837C163.506 108.446 163.237 108.178 163.237 107.846C163.237 107.515 163.506 107.246 163.837 107.246H167.438V103.645C167.438 103.314 167.707 103.045 168.039 103.045Z" fill="white"/>
<defs>
<clipPath id="clip0_322_22">
<rect width="123.462" height="123.462" fill="white" transform="translate(34.2886 15.25)"/>
</clipPath>
<clipPath id="clip1_322_22">
<rect width="65.8462" height="24.6923" fill="white" transform="translate(63.0962 48.173)"/>
</clipPath>
</defs>
</svg>
